<?xml version="1.0" encoding="UTF-8"?>
<svg xmlns="http://www.w3.org/2000/svg" xmlns:xlink="http://www.w3.org/1999/xlink" width="140px" height="28px" viewBox="0 0 138 28" version="1.1">
<defs>
<clipPath id="clip1">
  <path d="M 0.0078125 0.03125 L 137.828125 0.03125 L 137.828125 28 L 0.0078125 28 Z M 0.0078125 0.03125 "/>
</clipPath>
</defs>
<g id="surface1">
<g clip-path="url(#clip1)" clip-rule="nonzero">
<path style=" stroke:none;fill-rule:nonzero;fill:rgb(20.784314%,20.784314%,20.784314%);fill-opacity:1;" d="M 6.660156 20.429688 C 4.972656 20.429688 3.519531 19.964844 2.296875 19.03125 C 1.074219 18.105469 0.3125 16.894531 0.0078125 15.394531 L 1.867188 14.585938 C 2.117188 15.703125 2.6875 16.613281 3.574219 17.316406 C 4.464844 18.019531 5.511719 18.371094 6.714844 18.371094 C 7.972656 18.371094 9 18.007812 9.800781 17.273438 C 10.597656 16.546875 10.996094 15.605469 10.996094 14.449219 C 10.996094 13.855469 10.882812 13.351562 10.648438 12.945312 C 10.414062 12.539062 10.011719 12.160156 9.433594 11.796875 C 8.859375 11.4375 8.042969 11.039062 6.984375 10.605469 C 5.1875 9.867188 3.894531 9.09375 3.105469 8.289062 C 2.316406 7.488281 1.917969 6.546875 1.917969 5.464844 C 1.917969 4.601562 2.148438 3.808594 2.609375 3.09375 C 3.066406 2.386719 3.6875 1.824219 4.480469 1.417969 C 5.269531 1.011719 6.148438 0.8125 7.117188 0.8125 C 7.964844 0.8125 8.730469 0.964844 9.417969 1.273438 C 10.113281 1.578125 10.664062 1.996094 11.066406 2.527344 C 11.46875 3.0625 11.671875 3.644531 11.671875 4.273438 C 11.671875 5.050781 11.417969 5.683594 10.917969 6.167969 C 10.414062 6.65625 9.777344 6.898438 9.003906 6.898438 C 8.769531 6.898438 8.589844 6.890625 8.464844 6.871094 L 8.628906 5.03125 C 8.734375 5.070312 8.816406 5.085938 8.871094 5.085938 C 9.050781 5.085938 9.207031 5.007812 9.34375 4.855469 C 9.476562 4.703125 9.542969 4.519531 9.542969 4.300781 C 9.542969 3.90625 9.308594 3.566406 8.84375 3.285156 C 8.375 3.007812 7.820312 2.867188 7.171875 2.867188 C 6.347656 2.867188 5.628906 3.113281 5.015625 3.597656 C 4.40625 4.085938 4.101562 4.671875 4.101562 5.359375 C 4.101562 5.972656 4.40625 6.542969 5.015625 7.074219 C 5.628906 7.605469 6.5625 8.136719 7.820312 8.660156 C 9.742188 9.453125 11.125 10.296875 11.96875 11.191406 C 12.8125 12.082031 13.234375 13.160156 13.234375 14.421875 C 13.234375 15.558594 12.945312 16.582031 12.371094 17.496094 C 11.796875 18.40625 11.011719 19.121094 10.015625 19.644531 C 9.019531 20.167969 7.898438 20.429688 6.660156 20.429688 Z M 18.59375 17.480469 C 18.59375 17.679688 18.65625 17.84375 18.785156 17.976562 C 18.910156 18.113281 19.070312 18.183594 19.269531 18.183594 C 19.554688 18.183594 19.78125 18.019531 19.941406 17.695312 L 21.53125 18.699219 C 21.28125 19.167969 20.953125 19.53125 20.550781 19.789062 C 20.144531 20.054688 19.671875 20.1875 19.132812 20.1875 C 18.289062 20.1875 17.621094 19.9375 17.128906 19.4375 C 16.632812 18.945312 16.386719 18.265625 16.386719 17.398438 L 16.386719 6.332031 L 18.59375 6.332031 Z M 17.464844 3.707031 C 17.105469 3.707031 16.78125 3.5625 16.492188 3.273438 C 16.207031 2.984375 16.0625 2.660156 16.0625 2.300781 C 16.0625 1.921875 16.207031 1.585938 16.492188 1.296875 C 16.78125 1.011719 17.105469 0.867188 17.464844 0.867188 C 17.839844 0.867188 18.179688 1.011719 18.476562 1.296875 C 18.769531 1.585938 18.917969 1.921875 18.917969 2.300781 C 18.917969 2.660156 18.769531 2.984375 18.476562 3.273438 C 18.179688 3.5625 17.839844 3.707031 17.464844 3.707031 Z M 35.96875 17.695312 L 37.558594 18.699219 C 37.308594 19.167969 36.980469 19.53125 36.574219 19.789062 C 36.171875 20.054688 35.699219 20.1875 35.160156 20.1875 C 34.316406 20.1875 33.648438 19.9375 33.15625 19.4375 C 32.664062 18.945312 32.414062 18.265625 32.414062 17.398438 L 32.414062 10.769531 C 32.414062 9.867188 32.226562 9.175781 31.847656 8.695312 C 31.472656 8.21875 30.824219 7.980469 29.910156 7.980469 C 29.082031 7.980469 28.378906 8.179688 27.796875 8.578125 C 27.210938 8.972656 26.613281 9.578125 26.003906 10.390625 L 26.003906 19.914062 L 23.792969 19.914062 L 23.792969 10.417969 C 23.792969 9.011719 23.417969 7.980469 22.664062 7.332031 L 24.144531 5.953125 C 24.449219 6.117188 24.746094 6.378906 25.03125 6.75 C 25.320312 7.121094 25.554688 7.539062 25.734375 8.007812 C 26.847656 6.65625 28.285156 5.980469 30.042969 5.980469 C 31.371094 5.980469 32.449219 6.335938 33.277344 7.046875 C 34.101562 7.761719 34.550781 8.765625 34.625 10.066406 L 34.625 17.480469 C 34.625 17.679688 34.6875 17.84375 34.8125 17.976562 C 34.9375 18.113281 35.097656 18.183594 35.296875 18.183594 C 35.582031 18.183594 35.808594 18.019531 35.96875 17.695312 Z M 43.890625 20.160156 C 41.914062 20.160156 40.171875 19.402344 38.664062 17.886719 L 39.929688 16.398438 C 40.613281 16.992188 41.257812 17.429688 41.871094 17.707031 C 42.480469 17.988281 43.125 18.128906 43.808594 18.128906 C 44.6875 18.128906 45.382812 17.933594 45.894531 17.542969 C 46.40625 17.160156 46.664062 16.625 46.664062 15.9375 C 46.664062 15.523438 46.5625 15.1875 46.359375 14.9375 C 46.148438 14.683594 45.851562 14.460938 45.464844 14.269531 C 45.078125 14.082031 44.4375 13.808594 43.539062 13.449219 C 42.550781 13.050781 41.785156 12.703125 41.238281 12.402344 C 40.691406 12.109375 40.253906 11.730469 39.929688 11.265625 C 39.605469 10.808594 39.445312 10.238281 39.445312 9.550781 C 39.445312 8.433594 39.839844 7.53125 40.628906 6.847656 C 41.421875 6.160156 42.445312 5.816406 43.703125 5.816406 C 44.4375 5.816406 45.179688 5.9375 45.921875 6.179688 C 46.667969 6.425781 47.257812 6.738281 47.6875 7.117188 L 46.746094 8.710938 C 45.9375 8.117188 44.996094 7.820312 43.917969 7.820312 C 43.234375 7.820312 42.691406 7.960938 42.285156 8.238281 C 41.882812 8.519531 41.679688 8.902344 41.679688 9.390625 C 41.679688 9.894531 41.882812 10.285156 42.285156 10.5625 C 42.691406 10.84375 43.386719 11.183594 44.375 11.582031 C 45.488281 12.03125 46.359375 12.4375 46.988281 12.796875 C 47.617188 13.160156 48.09375 13.578125 48.414062 14.054688 C 48.738281 14.535156 48.902344 15.136719 48.902344 15.855469 C 48.902344 17.136719 48.433594 18.175781 47.5 18.96875 C 46.566406 19.761719 45.363281 20.160156 43.890625 20.160156 Z M 55.285156 20.160156 C 54.027344 20.160156 53.082031 19.773438 52.441406 19.007812 C 51.804688 18.242188 51.488281 17.171875 51.488281 15.800781 L 51.488281 2.867188 L 53.695312 2.867188 L 53.695312 6.359375 L 57.816406 6.359375 L 57.816406 8.359375 L 53.695312 8.359375 L 53.695312 15.800781 C 53.695312 16.453125 53.832031 16.996094 54.101562 17.4375 C 54.371094 17.878906 54.765625 18.101562 55.285156 18.101562 C 55.804688 18.101562 56.246094 17.953125 56.605469 17.652344 C 56.964844 17.355469 57.242188 16.957031 57.441406 16.453125 L 59.164062 17.5625 C 58.300781 19.292969 57.007812 20.160156 55.285156 20.160156 Z M 65.980469 20.160156 C 64.777344 20.160156 63.738281 19.835938 62.867188 19.195312 C 61.996094 18.558594 61.335938 17.695312 60.878906 16.613281 C 60.417969 15.53125 60.1875 14.359375 60.1875 13.097656 C 60.1875 11.726562 60.449219 10.5 60.96875 9.417969 C 61.492188 8.335938 62.257812 7.476562 63.269531 6.847656 C 64.285156 6.214844 65.503906 5.898438 66.921875 5.898438 C 67.335938 5.898438 67.851562 5.921875 68.472656 5.964844 C 69.09375 6.011719 69.617188 6.070312 70.046875 6.140625 L 71.851562 6.140625 L 71.851562 17.371094 C 71.851562 17.625 71.910156 17.816406 72.03125 17.949219 C 72.144531 18.085938 72.320312 18.15625 72.554688 18.15625 C 72.859375 18.15625 73.101562 18.003906 73.28125 17.695312 L 74.789062 18.699219 C 74.554688 19.148438 74.21875 19.503906 73.78125 19.761719 C 73.339844 20.027344 72.867188 20.160156 72.363281 20.160156 C 71.699219 20.160156 71.128906 19.964844 70.652344 19.574219 C 70.175781 19.1875 69.921875 18.734375 69.886719 18.210938 L 69.886719 18.238281 C 69.582031 18.832031 69.070312 19.300781 68.351562 19.644531 C 67.632812 19.988281 66.84375 20.160156 65.980469 20.160156 Z M 66.140625 18.15625 C 66.859375 18.15625 67.496094 17.96875 68.054688 17.589844 C 68.609375 17.210938 69.035156 16.730469 69.320312 16.152344 C 69.480469 15.847656 69.578125 15.585938 69.605469 15.371094 C 69.632812 15.152344 69.644531 14.910156 69.644531 14.640625 L 69.644531 8.089844 L 68.511719 8.007812 C 67.613281 7.9375 67.011719 7.902344 66.707031 7.902344 C 65.34375 7.902344 64.28125 8.386719 63.527344 9.363281 C 62.773438 10.335938 62.398438 11.570312 62.398438 13.070312 C 62.398438 14.457031 62.730469 15.652344 63.394531 16.652344 C 64.058594 17.65625 64.972656 18.15625 66.140625 18.15625 Z M 82.976562 27.25 C 82.207031 27.25 81.496094 27.0625 80.851562 26.695312 C 80.203125 26.324219 79.6875 25.820312 79.296875 25.179688 C 78.914062 24.539062 78.722656 23.839844 78.722656 23.082031 C 78.722656 21.820312 79.207031 20.753906 80.175781 19.886719 C 78.703125 19.457031 77.566406 18.660156 76.765625 17.507812 C 75.96875 16.351562 75.570312 14.9375 75.570312 13.257812 C 75.570312 11.832031 75.855469 10.5625 76.433594 9.445312 C 77.007812 8.324219 77.800781 7.453125 78.820312 6.828125 C 79.832031 6.207031 80.992188 5.898438 82.304688 5.898438 L 83.976562 5.953125 L 85.511719 6.140625 L 87.34375 6.140625 L 87.34375 22.484375 C 87.34375 23.910156 86.9375 25.0625 86.128906 25.9375 C 85.320312 26.8125 84.273438 27.25 82.976562 27.25 Z M 81.414062 18.074219 C 82.222656 18.074219 83.003906 17.75 83.757812 17.101562 C 84.171875 16.757812 84.503906 16.378906 84.757812 15.964844 C 85.007812 15.550781 85.132812 15.179688 85.132812 14.855469 L 85.132812 7.929688 L 83.03125 7.902344 L 82.195312 7.902344 C 81.371094 7.902344 80.621094 8.125 79.945312 8.578125 C 79.273438 9.027344 78.742188 9.644531 78.355469 10.429688 C 77.972656 11.214844 77.777344 12.09375 77.777344 13.070312 C 77.777344 13.972656 77.945312 14.804688 78.28125 15.570312 C 78.609375 16.339844 79.054688 16.949219 79.609375 17.398438 C 80.167969 17.847656 80.769531 18.074219 81.414062 18.074219 Z M 83.085938 25.246094 C 83.714844 25.246094 84.210938 25.003906 84.578125 24.515625 C 84.949219 24.027344 85.132812 23.378906 85.132812 22.566406 L 85.132812 18.128906 C 85.097656 18.183594 85.007812 18.304688 84.863281 18.492188 C 84.71875 18.683594 84.566406 18.859375 84.40625 19.023438 C 83.992188 19.417969 83.246094 19.941406 82.171875 20.589844 C 81.308594 21.113281 80.878906 21.945312 80.878906 23.082031 C 80.878906 23.660156 81.097656 24.164062 81.535156 24.597656 C 81.976562 25.027344 82.492188 25.246094 83.085938 25.246094 Z M 97.230469 5.898438 C 97.75 5.898438 98.371094 5.988281 99.085938 6.167969 L 99.035156 8.308594 C 98.316406 8.109375 97.730469 8.007812 97.28125 8.007812 C 96.4375 8.007812 95.785156 8.207031 95.316406 8.605469 C 94.777344 9.039062 94.308594 9.613281 93.914062 10.335938 L 93.914062 19.914062 L 91.707031 19.914062 L 91.707031 10.335938 C 91.707031 8.929688 91.328125 7.902344 90.574219 7.25 L 92.058594 5.871094 C 92.328125 6.035156 92.597656 6.277344 92.875 6.601562 C 93.15625 6.925781 93.386719 7.296875 93.566406 7.710938 C 93.960938 7.207031 94.363281 6.820312 94.777344 6.546875 C 95.460938 6.117188 96.277344 5.898438 97.230469 5.898438 Z M 105.902344 20.160156 C 104.699219 20.160156 103.664062 19.835938 102.792969 19.195312 C 101.921875 18.558594 101.257812 17.695312 100.800781 16.613281 C 100.339844 15.53125 100.113281 14.359375 100.113281 13.097656 C 100.113281 11.726562 100.371094 10.5 100.894531 9.417969 C 101.414062 8.335938 102.183594 7.476562 103.199219 6.847656 C 104.210938 6.214844 105.425781 5.898438 106.847656 5.898438 C 107.257812 5.898438 107.777344 5.921875 108.398438 5.964844 C 109.015625 6.011719 109.539062 6.070312 109.972656 6.140625 L 111.777344 6.140625 L 111.777344 17.371094 C 111.777344 17.625 111.835938 17.816406 111.953125 17.949219 C 112.070312 18.085938 112.242188 18.15625 112.476562 18.15625 C 112.78125 18.15625 113.023438 18.003906 113.203125 17.695312 L 114.710938 18.699219 C 114.480469 19.148438 114.144531 19.503906 113.703125 19.761719 C 113.261719 20.027344 112.789062 20.160156 112.289062 20.160156 C 111.625 20.160156 111.054688 19.964844 110.578125 19.574219 C 110.101562 19.1875 109.84375 18.734375 109.808594 18.210938 L 109.808594 18.238281 C 109.503906 18.832031 108.992188 19.300781 108.273438 19.644531 C 107.554688 19.988281 106.765625 20.160156 105.902344 20.160156 Z M 106.066406 18.15625 C 106.78125 18.15625 107.421875 17.96875 107.976562 17.589844 C 108.535156 17.210938 108.957031 16.730469 109.242188 16.152344 C 109.40625 15.847656 109.5 15.585938 109.53125 15.371094 C 109.554688 15.152344 109.566406 14.910156 109.566406 14.640625 L 109.566406 8.089844 L 108.4375 8.007812 C 107.539062 7.9375 106.9375 7.902344 106.628906 7.902344 C 105.265625 7.902344 104.207031 8.386719 103.453125 9.363281 C 102.699219 10.335938 102.320312 11.570312 102.320312 13.070312 C 102.320312 14.457031 102.652344 15.652344 103.316406 16.652344 C 103.980469 17.65625 104.898438 18.15625 106.066406 18.15625 Z M 136.238281 17.695312 L 137.824219 18.699219 C 137.574219 19.167969 137.246094 19.53125 136.84375 19.789062 C 136.441406 20.054688 135.96875 20.1875 135.429688 20.1875 C 134.585938 20.1875 133.914062 19.9375 133.425781 19.4375 C 132.929688 18.945312 132.679688 18.265625 132.679688 17.398438 L 132.679688 10.417969 C 132.609375 9.535156 132.394531 8.910156 132.035156 8.550781 C 131.675781 8.191406 131.136719 8.007812 130.417969 8.007812 C 129.699219 8.007812 129.058594 8.183594 128.496094 8.535156 C 127.925781 8.886719 127.425781 9.488281 126.996094 10.335938 L 126.996094 19.914062 L 124.789062 19.914062 L 124.789062 10.769531 C 124.789062 9.886719 124.597656 9.203125 124.222656 8.722656 C 123.84375 8.246094 123.289062 8.007812 122.550781 8.007812 C 121.816406 8.007812 121.132812 8.21875 120.503906 8.640625 C 119.875 9.070312 119.417969 9.605469 119.128906 10.253906 L 119.128906 19.914062 L 116.921875 19.914062 L 116.921875 10.417969 C 116.921875 9.011719 116.542969 7.980469 115.789062 7.332031 L 117.273438 5.953125 C 117.558594 6.117188 117.847656 6.371094 118.132812 6.722656 C 118.421875 7.074219 118.65625 7.476562 118.832031 7.929688 C 119.335938 7.332031 119.921875 6.863281 120.585938 6.519531 C 121.25 6.179688 121.949219 6.007812 122.6875 6.007812 C 123.476562 6.007812 124.203125 6.207031 124.867188 6.601562 C 125.53125 7 126.042969 7.53125 126.402344 8.199219 C 126.925781 7.53125 127.535156 7 128.234375 6.601562 C 128.9375 6.207031 129.671875 6.007812 130.445312 6.007812 C 131.792969 6.007812 132.867188 6.375 133.675781 7.117188 C 134.484375 7.855469 134.890625 8.9375 134.890625 10.363281 L 134.890625 17.480469 C 134.890625 17.679688 134.953125 17.84375 135.078125 17.976562 C 135.203125 18.113281 135.367188 18.183594 135.5625 18.183594 C 135.851562 18.183594 136.074219 18.019531 136.238281 17.695312 Z M 136.238281 17.695312 "/>
</g>
</g>
</svg>
